<svg width="85" height="78" viewBox="0 0 85 78" fill="none" xmlns="http://www.w3.org/2000/svg">
<path d="M82.0634 49.5264H80.2134V41.0924C80.2134 36.9616 76.8523 33.6004 72.7215 33.6004H68.7253V31.7505H72.7215C77.873 31.7505 82.0634 35.9409 82.0634 41.0924V49.5264Z" fill="#5B5B5B"/>
<path d="M59.4385 63.3569H46.2116L45.2866 62.4319V57.668H47.1366V61.507H59.4385V63.3569Z" fill="#5B5B5B"/>
<path d="M51.0975 34.4811L50.2231 32.8498C51.5663 32.1308 53.0866 31.7505 54.6195 31.7505H58.6157V33.6004H54.6195C53.3901 33.6004 52.1725 33.9048 51.0975 34.4811Z" fill="#5B5B5B"/>
<path d="M19.3693 58.5928H4.19038L3.5364 58.3218L0.270988 55.0573L0 54.4033V28.3559L0.273698 27.6992C1.09931 26.879 1.68916 26.2874 2.34947 25.6252L3.5364 24.4365L4.19038 24.1655H7.97338V26.0155H4.57428L3.65925 26.9314C3.0721 27.5204 2.54097 28.0533 1.84995 28.7407V54.0203L4.57338 56.7428H19.3693V58.5928Z" fill="#5B5B5B"/>
<path d="M47.3959 58.5928H32.217V56.7428H47.0111C47.6976 56.0518 48.2306 55.5207 48.8195 54.9344L49.7355 54.0194V28.7407C48.7102 27.7218 48.03 27.0416 47.0111 26.0155H10.2769V24.1655H47.3959L48.0526 24.4383C49.3181 25.7129 50.0381 26.4337 51.3126 27.6992L51.5854 28.3559V54.4033L51.3144 55.0573L50.1257 56.2442C49.4636 56.9036 48.8728 57.4935 48.0526 58.3191L47.3959 58.5928Z" fill="#5B5B5B"/>
<path d="M65.4789 37.495H61.8711C59.5659 37.495 57.6907 35.6188 57.6907 33.3136V27.9219H59.5406V33.3136C59.5406 34.599 60.5857 35.645 61.8711 35.645H65.4789C66.7588 35.645 67.8003 34.599 67.8003 33.3136V27.9219H69.6503V33.3136C69.6503 35.6188 67.7787 37.495 65.4789 37.495Z" fill="#5B5B5B"/>
<path d="M63.675 30.2613C57.8045 30.2613 53.0288 25.4892 53.0288 19.6242V13.1123H54.8788V19.6242C54.8788 24.4694 58.8243 28.4114 63.675 28.4114C68.5203 28.4114 72.4623 24.4694 72.4623 19.6242V13.5748H74.3122V19.6242C74.3122 25.4892 69.5401 30.2613 63.675 30.2613Z" fill="#5B5B5B"/>
<path d="M75.5561 66.1962H59.4196L58.4946 65.2712V62.8287C58.4946 59.4748 61.2235 56.746 64.5774 56.746H72.409V46.6309H74.2589V57.6709L73.3339 58.5959H64.5774C62.2433 58.5959 60.3446 60.4946 60.3446 62.8287V64.3463H75.5561C78.1232 64.3463 80.2116 62.2578 80.2116 59.6916V49.5268H82.0616V59.6916C82.0616 63.2786 79.143 66.1962 75.5561 66.1962Z" fill="#5B5B5B"/>
<path d="M73.3335 48.6021H81.1365V50.4524H73.3335V48.6021Z" fill="#5B5B5B"/>
<path d="M6.75708 50.7124H15.0817V52.5627H6.75708V50.7124Z" fill="#5B5B5B"/>
<path d="M33.0955 61.5068H46.2114V63.3572H33.0955V61.5068Z" fill="#5B5B5B"/>
<path d="M0.925 77.6017L0.0966797 76.264L7.19115 62.019L8.01947 61.5068H18.4814V63.3568H8.59216L2.41905 75.7518L76.5054 75.7419L82.6786 63.3568H80.6209V61.5068H84.1726L85 62.8446L77.9056 77.0796L77.0781 77.5918L0.925 77.6017Z" fill="#5B5B5B"/>
<path d="M34.1626 69.0923H17.4191L16.5095 67.9984L21.2581 42.3801L22.1678 41.624H29.414L30.3236 42.3801L35.0722 67.9984L34.1626 69.0923ZM18.5311 67.2424H33.0506L28.6444 43.474H22.9374L18.5311 67.2424Z" fill="#5B5B5B"/>
<path d="M74.8516 14.7002L69.505 14.0155C67.2748 13.7328 65.2983 12.4546 64.0717 10.5721C62.6463 12.1737 60.6879 13.2107 58.5164 13.4789L52.5745 14.2124C52.2223 14.2567 51.8664 14.1465 51.5999 13.9098C51.3325 13.6741 51.179 13.3344 51.179 12.9776C51.179 9.59659 52.4743 6.47209 54.8265 4.12172C57.1759 1.77406 60.2977 0.481445 63.6182 0.481445H63.6291C64.8404 0.482349 65.8683 1.28809 66.2044 2.39101C71.6151 2.95015 75.894 7.75748 75.894 13.4681V13.7825L74.8516 14.7002ZM63.4258 8.35546L65.0707 8.49999C65.8738 10.5062 67.6623 11.9172 69.7389 12.18L74.0151 12.7274C73.6538 8.07273 69.9151 4.30961 65.3715 4.19037L64.4709 3.2654C64.4709 2.70987 64.0925 2.33139 63.6273 2.33139C63.6245 2.33139 63.6209 2.33139 63.6182 2.33139C60.7909 2.33139 58.1343 3.4316 56.1335 5.4306C54.2809 7.28145 53.1987 9.69776 53.047 12.2902L58.2897 11.6435C60.4215 11.3797 62.2931 10.181 63.4258 8.35546Z" fill="#5B5B5B"/>
<path d="M63.6722 24.713C60.928 24.713 58.6951 22.48 58.6951 19.7358H60.545C60.545 21.4602 61.9478 22.863 63.6722 22.863C65.3966 22.863 66.7994 21.4602 66.7994 19.7358H68.6494C68.6494 22.48 66.4164 24.713 63.6722 24.713Z" fill="#5B5B5B"/>
<path d="M51.5815 46.6309H53.4319V62.4355H51.5815V46.6309Z" fill="#5B5B5B"/>
<path d="M45.4826 20.4777L40.2579 15.2621H30.2259C27.9659 15.2621 26.1277 13.4239 26.1277 11.1647V4.09825C26.1277 1.8382 27.9659 0 30.2259 0H46.1357C48.3948 0 50.233 1.8382 50.233 4.09825V11.1647C50.233 13.1059 48.8763 14.7363 47.0606 15.1564V19.8228L45.4826 20.4777ZM30.2259 1.84995C28.9866 1.84995 27.9776 2.85893 27.9776 4.09825V11.1647C27.9776 12.404 28.9866 13.4121 30.2259 13.4121H40.6409L41.294 13.6822L45.2107 17.5926V14.3371L46.1357 13.4121C47.375 13.4121 48.3831 12.404 48.3831 11.1647V4.09825C48.3831 2.85893 47.375 1.84995 46.1357 1.84995H30.2259Z" fill="#14AFB1"/>
<path d="M8.62373 28.0519L7.04567 27.397V22.7306C5.23005 22.3106 3.87329 20.6801 3.87329 18.7389V11.6716C3.87329 9.41242 5.71151 7.57422 7.97064 7.57422H23.8804C26.1395 7.57422 27.9777 9.41242 27.9777 11.6716V18.7389C27.9777 20.9981 26.1395 22.8363 23.8804 22.8363H13.8484L8.62373 28.0519ZM7.97064 9.42417C6.73132 9.42417 5.72324 10.4322 5.72324 11.6716V18.7389C5.72324 19.9783 6.73132 20.9863 7.97064 20.9863L8.89562 21.9113V25.1668L12.8123 21.2564L13.4654 20.9863H23.8804C25.1197 20.9863 26.1278 19.9783 26.1278 18.7389V11.6716C26.1278 10.4322 25.1197 9.42417 23.8804 9.42417H7.97064Z" fill="#14AFB1"/>
<path d="M30.7002 7.86182H34.0787V9.71213H30.7002V7.86182Z" fill="#14AFB1"/>
<path d="M36.491 7.86182H39.8695V9.71213H36.491V7.86182Z" fill="#14AFB1"/>
<path d="M42.2825 7.86182H45.661V9.71213H42.2825V7.86182Z" fill="#14AFB1"/>
</svg>
