<svg width="85" height="78" viewBox="0 0 85 78" fill="none" xmlns="http://www.w3.org/2000/svg">
<path d="M24.8657 7.45068H26.716V13.7738H24.8657V7.45068Z" fill="#14AFB1"/>
<path d="M8.24414 12.4771L9.69869 11.3334L13.592 16.2851L12.1374 17.4287L8.24414 12.4771Z" fill="#14AFB1"/>
<path d="M37.9832 16.2915L41.8764 11.3398L43.331 12.4835L39.4377 17.4352L37.9832 16.2915Z" fill="#14AFB1"/>
<path d="M82.0634 49.0454H80.2134V40.6114C80.2134 36.4806 76.8523 33.1195 72.7215 33.1195H68.7253V31.2695H72.7215C77.873 31.2695 82.0634 35.4599 82.0634 40.6114V49.0454Z" fill="#5B5B5B"/>
<path d="M59.4385 62.8755H46.2116L45.2866 61.9505V57.1865H47.1366V61.0255H59.4385V62.8755Z" fill="#5B5B5B"/>
<path d="M51.0965 33.9993L50.2239 32.3679C51.5671 31.6498 53.0873 31.2695 54.6193 31.2695H58.6155V33.1195H54.6193C53.3908 33.1195 52.1723 33.4239 51.0965 33.9993Z" fill="#5B5B5B"/>
<path d="M47.3958 58.1128H32.2169V56.2629H47.011C47.6777 55.5926 48.1989 55.0723 48.767 54.5059L49.7354 53.5385V28.2607C48.7101 27.2418 48.03 26.5616 47.011 25.5355H4.57428L3.65924 26.4514C3.0721 27.0404 2.54097 27.5733 1.84995 28.2607V53.5394L4.57338 56.2629H19.3693V58.1128H4.19038L3.5364 57.8418L0.270988 54.5764L0 53.9224V27.8759L0.272795 27.2192C1.09931 26.399 1.68916 25.8074 2.34947 25.1453L3.5364 23.9565L4.19038 23.6855H47.3958L48.0525 23.9583C49.3181 25.2329 50.038 25.9537 51.3125 27.2192L51.5853 27.8759V53.9224L51.3143 54.5764L50.0732 55.8157C49.4328 56.4553 48.8511 57.0352 48.0525 57.8391L47.3958 58.1128Z" fill="#5B5B5B"/>
<path d="M65.4789 37.0144H61.8711C59.5659 37.0144 57.6907 35.1383 57.6907 32.8331V27.4404H59.5406V32.8331C59.5406 34.1185 60.5857 35.1645 61.8711 35.1645H65.4789C66.7588 35.1645 67.8003 34.1185 67.8003 32.8331V27.4404H69.6503V32.8331C69.6503 35.1383 67.7787 37.0144 65.4789 37.0144Z" fill="#5B5B5B"/>
<path d="M63.675 29.7794C57.8045 29.7794 53.0288 25.0073 53.0288 19.1422V12.6304H54.8788V19.1422C54.8788 23.9875 58.8243 27.9295 63.675 27.9295C68.5203 27.9295 72.4623 23.9875 72.4623 19.1422V13.0929H74.3122V19.1422C74.3122 25.0073 69.5401 29.7794 63.675 29.7794Z" fill="#5B5B5B"/>
<path d="M75.5561 65.7148H59.4196L58.4946 64.7898V62.3464C58.4946 58.9925 61.2235 56.2636 64.5774 56.2636H72.409V46.1494H74.2589V57.1886L73.3339 58.1135H64.5774C62.2433 58.1135 60.3446 60.0123 60.3446 62.3464V63.8648H75.5561C78.1232 63.8648 80.2116 61.7764 80.2116 59.2101V49.0454H82.0616V59.2101C82.0616 62.7971 79.143 65.7148 75.5561 65.7148Z" fill="#5B5B5B"/>
<path d="M73.3337 48.1201H81.1367V49.9704H73.3337V48.1201Z" fill="#5B5B5B"/>
<path d="M6.75708 50.231H15.0817V52.0813H6.75708V50.231Z" fill="#5B5B5B"/>
<path d="M33.0955 61.0254H46.2114V62.8757H33.0955V61.0254Z" fill="#5B5B5B"/>
<path d="M0.925 77.1194L0.0966797 75.7816L7.19115 61.5376L8.01947 61.0254H18.4814V62.8753H8.59216L2.41905 75.2694L76.5054 75.2604L82.6786 62.8753H80.6209V61.0254H84.1726L85 62.3632L77.9056 76.5982L77.0781 77.1104L0.925 77.1194Z" fill="#5B5B5B"/>
<path d="M34.1626 68.6099H17.4191L16.5095 67.516L21.2581 41.8977L22.1678 41.1416H29.414L30.3236 41.8977L35.0722 67.516L34.1626 68.6099ZM18.5311 66.7599H33.0506L28.6444 42.9915H22.9374L18.5311 66.7599Z" fill="#14AFB1"/>
<path d="M74.8513 14.2191L69.5047 13.5344C67.2745 13.2516 65.2981 11.9735 64.0714 10.091C62.6451 11.6926 60.6868 12.7295 58.5162 12.9978L52.5743 13.7304C52.2229 13.7738 51.8652 13.6645 51.5987 13.4278C51.3314 13.192 51.1787 12.8524 51.1787 12.4965C51.1787 9.11546 52.474 5.99007 54.8262 3.6406C57.1757 1.29293 60.2975 0.000321374 63.618 0.000321374C64.8194 -0.018648 65.8663 0.804253 66.2041 1.90989C71.6148 2.46902 75.8937 7.27636 75.8937 12.987V13.3013L74.8513 14.2191ZM63.4256 7.87434L65.0705 8.01796C65.8735 10.0251 67.662 11.436 69.7387 11.6989L74.0149 12.2463C73.6536 7.59161 69.9148 3.82848 65.3713 3.70925L64.4707 2.78427C64.4698 2.22514 64.0723 1.80962 63.618 1.85027C60.7907 1.85027 58.1332 2.95048 56.1333 4.94857C54.2806 6.79942 53.1985 9.21573 53.0467 11.8082L58.2894 11.1623C60.4203 10.8986 62.2928 9.69989 63.4256 7.87434Z" fill="#5B5B5B"/>
<path d="M63.6722 24.232C60.928 24.232 58.6951 21.9991 58.6951 19.2549H60.545C60.545 20.9793 61.9478 22.3821 63.6722 22.3821C65.3966 22.3821 66.7994 20.9793 66.7994 19.2549H68.6494C68.6494 21.9991 66.4164 24.232 63.6722 24.232Z" fill="#5B5B5B"/>
<path d="M51.5815 46.1499H53.4319V61.9545H51.5815V46.1499Z" fill="#5B5B5B"/>
</svg>
